<svg xmlns="http://www.w3.org/2000/svg" viewBox="0 0 600 600"><defs><linearGradient id="b" x2="1" y2="1"><stop stop-color="#36495e"/><stop offset="1" stop-color="#182636"/></linearGradient><filter id="s"><feGaussianBlur stdDeviation="13"/></filter></defs><rect width="600" height="600" fill="#edf0f3"/><ellipse cx="303" cy="432" rx="180" ry="30" fill="#bbc3cb" opacity=".6" filter="url(#s)"/><path d="M156 350q-12-181 134-197 146-7 169 196l-9 22q-168 49-294-21" fill="url(#b)"/><path d="M295 157q-31 72-24 207m27-208q72 80 62 210M160 340q140 29 286 11" stroke="#4a596a" stroke-width="3" fill="none"/><path d="M170 341q-74 11-60 53 42 79 226 23 77-22 94-64-156 30-260-12" fill="#243649"/><path d="M124 386q96 43 256-20" stroke="#566273" stroke-width="2" fill="none"/><path d="m304 241-24 33 24 33 24-33Z" fill="none" stroke="#eee6d4" stroke-width="7"/><circle cx="295" cy="158" r="9" fill="#1e2f41"/></svg>
