<svg xmlns="http://www.w3.org/2000/svg" viewBox="0 0 600 600"><defs><linearGradient id="b" x2="1" y2="1"><stop stop-color="#fbfbf8"/><stop offset="1" stop-color="#dadbd5"/></linearGradient></defs><rect width="600" height="600" fill="#edf0ed"/><path d="m231 148-72 30-67 111 85 39 29-45-10 192q104 18 208 0l-10-192 29 45 85-39-67-111-72-30q-31 47-69 0Z" fill="#c5cbc7" transform="translate(0 12)" opacity=".4"/><path d="m231 142-72 30-67 111 85 39 29-45-10 192q104 18 208 0l-10-192 29 45 85-39-67-111-72-30q-31 47-69 0Z" fill="url(#b)"/><path d="M236 146q63 44 128 0M243 157q57 43 114 0m-151 119 7-83m181 83-7-83M198 456q100 15 204 0" fill="none" stroke="#bfc6bd" stroke-width="2"/><g transform="translate(330 245)"><path d="m0-23-18 23L0 23 18 0Z" fill="none" stroke="#344f76" stroke-width="5"/><path d="M-23 39h46" stroke="#344f76" stroke-width="3"/></g></svg>
